<?xml version="1.0" standalone="no"?>
<!DOCTYPE svg PUBLIC "-//W3C//DTD SVG 20010904//EN"
 "http://www.w3.org/TR/2001/REC-SVG-20010904/DTD/svg10.dtd">
<svg version="1.0" xmlns="http://www.w3.org/2000/svg"
 width="3345.000000pt" height="1575.000000pt" viewBox="0 0 3345.000000 1575.000000"
 preserveAspectRatio="xMidYMid meet">

<g transform="translate(0.000000,1575.000000) scale(0.100000,-0.100000)"
fill="#000000" stroke="none">
<path d="M17653 14293 c-13 -2 -23 -7 -23 -11 0 -4 -61 -349 -135 -766 -74
-418 -133 -761 -132 -763 2 -1 66 -14 143 -28 256 -47 579 -135 818 -220 54
-20 100 -34 102 -32 2 1 201 363 443 802 310 564 437 802 428 807 -21 11 -243
65 -402 97 -280 57 -596 96 -850 106 -267 10 -370 12 -392 8z m1049 -132 c231
-39 528 -105 528 -117 0 -3 -91 -170 -201 -372 -375 -683 -581 -1057 -605
-1099 l-25 -43 -67 26 c-179 67 -548 168 -792 215 -63 12 -116 23 -117 24 -8
5 110 612 120 621 49 47 964 774 973 774 7 0 91 -13 186 -29z"/>
<path d="M16765 14225 c-340 -51 -667 -124 -995 -223 -229 -70 -221 -66 -215
-99 3 -15 30 -275 61 -578 30 -302 56 -550 57 -552 2 -1 59 4 126 12 200 23
491 37 711 33 l206 -3 122 705 c68 388 123 711 122 718 0 15 -3 15 -195 -13z"/>
<path d="M20012 13787 c-104 -171 -911 -1622 -904 -1625 6 -2 72 -39 148 -84
240 -140 495 -318 691 -481 51 -42 97 -77 103 -77 6 0 332 303 726 673 l715
672 -63 59 c-95 88 -338 281 -468 371 -255 178 -454 296 -715 425 -222 109
-210 106 -233 67z m211 -113 c204 -102 350 -186 541 -311 154 -101 384 -271
476 -351 l45 -40 -25 -20 c-14 -11 -347 -279 -739 -595 l-715 -575 -70 50
c-125 89 -318 214 -438 283 -65 37 -118 73 -118 78 0 6 86 164 191 351 106
188 295 526 422 751 262 469 254 455 267 455 6 0 79 -34 163 -76z"/>
<path d="M14800 13632 c-205 -96 -490 -244 -665 -347 -212 -124 -405 -248
-405 -260 0 -12 276 -714 283 -722 3 -2 65 21 139 53 226 97 478 182 766 260
125 33 142 40 142 58 0 12 -23 239 -50 506 -28 267 -50 493 -50 503 0 9 -3 17
-7 17 -5 0 -73 -31 -153 -68z"/>
<path d="M13084 12554 c-184 -150 -404 -348 -583 -523 l-153 -150 44 -63 c25
-35 84 -120 132 -190 48 -71 89 -128 92 -128 2 0 60 39 129 88 167 117 349
232 541 342 87 50 162 94 167 99 6 6 -224 615 -237 628 -1 2 -61 -45 -132
-103z"/>
<path d="M21316 11629 c-416 -331 -755 -603 -754 -605 2 -2 148 -22 323 -44
566 -72 1189 -174 1798 -296 154 -30 281 -53 284 -51 18 19 -278 646 -429 907
-145 251 -402 638 -450 677 -12 10 -143 -89 -772 -588z"/>
<path d="M11875 11343 c-170 -203 -582 -780 -573 -801 1 -5 34 -37 72 -72 l68
-64 41 44 c188 208 383 409 507 525 l149 138 -96 141 c-53 78 -99 145 -104
149 -4 5 -33 -22 -64 -60z"/>
<path d="M10836 9728 c-125 -253 -219 -458 -212 -458 2 0 23 33 47 73 63 106
219 345 312 476 l81 114 -37 33 c-20 19 -41 34 -47 34 -5 0 -70 -123 -144
-272z"/>
<path d="M26050 8089 c-592 -18 -976 -43 -1782 -116 -38 -3 -68 -10 -68 -14 0
-5 33 -9 73 -9 283 0 1427 -82 2032 -145 3453 -363 5286 -1238 5352 -2555 24
-473 -206 -1018 -641 -1520 l-91 -105 70 49 c373 262 721 637 1040 1121 278
422 549 961 765 1525 74 192 196 548 189 554 -2 1 -44 25 -94 53 -1392 777
-3506 1180 -6140 1171 -253 0 -570 -5 -705 -9z m2692 -125 c934 -78 1807 -231
2558 -449 153 -45 484 -153 604 -198 l88 -34 -33 -20 c-19 -12 -266 -155 -549
-318 -283 -164 -527 -304 -541 -312 -24 -14 -29 -13 -100 33 -646 418 -1647
753 -2947 986 l-72 13 287 167 288 167 60 -5 c33 -2 194 -16 357 -30z"/>
<path d="M18085 7879 c-927 -124 -2206 -244 -3180 -299 -664 -37 -836 -41
-1660 -47 -1033 -7 -1434 4 -2815 77 -1331 70 -1801 85 -2470 77 -740 -10
-1443 -53 -2065 -128 -1242 -149 -2295 -562 -3233 -1268 -761 -573 -1423
-1360 -1863 -2215 -94 -183 -204 -425 -196 -432 2 -2 24 24 49 59 25 34 99
125 163 202 825 990 2007 1844 3333 2406 1238 525 2543 789 3892 789 297 0
382 -4 910 -35 1185 -69 2429 -69 3660 0 1701 97 3431 328 4950 661 290 64
701 162 709 170 7 7 -38 3 -184 -17z m-9130 -254 c304 -6 667 -22 1375 -60
250 -13 604 -31 785 -40 182 -8 420 -20 530 -25 110 -6 370 -13 578 -17 208
-3 374 -10 370 -14 -4 -4 -154 -92 -333 -195 l-324 -187 -246 -9 c-370 -13
-1602 -13 -1960 0 -367 14 -814 37 -1020 53 -80 6 -363 14 -630 18 l-485 6
420 243 420 242 120 -5 c66 -3 246 -7 400 -10z"/>
<path d="M22736 5163 c-8 -28 -596 -2978 -596 -2991 0 -9 91 -12 349 -12 l350
0 12 57 c6 32 55 279 109 548 l97 490 698 5 698 5 53 255 c29 140 56 265 59
278 l5 22 -701 0 -701 0 6 28 c4 15 39 194 80 397 l73 370 790 3 790 2 53 258
c29 141 55 267 58 280 l4 22 -1140 0 c-1078 0 -1141 -1 -1146 -17z m1774
-1390 c0 -5 -21 -110 -47 -235 l-47 -228 -648 0 c-512 0 -648 3 -648 13 0 6
13 73 28 147 l28 134 143 83 142 83 272 3 c677 7 777 7 777 0z m-1403 -234
c-3 -12 -16 -77 -28 -145 -22 -118 -24 -124 -47 -124 -20 0 -23 4 -19 23 3 12
16 72 28 132 20 101 36 135 62 135 5 0 7 -10 4 -21z m-132 -169 c-32 -155 -32
-160 0 -160 21 0 24 -3 19 -27 -3 -16 -47 -239 -97 -498 l-93 -470 -306 -3
-306 -2 90 437 c49 241 92 452 95 468 5 28 30 45 311 208 168 97 307 175 309
173 2 -1 -8 -58 -22 -126z"/>
<path d="M25196 3683 c-165 -824 -301 -1504 -304 -1510 -3 -10 71 -13 349 -13
l354 0 299 1498 c165 823 301 1503 304 1510 3 9 -71 12 -349 12 l-354 0 -299
-1497z m940 1430 c-2 -10 -37 -184 -76 -388 -95 -490 -397 -1984 -407 -2013
-6 -17 -96 -74 -343 -217 -184 -106 -336 -193 -337 -192 -4 5 468 2377 512
2573 l17 71 156 91 157 91 163 1 c151 0 163 -1 158 -17z"/>
<path d="M26662 5118 c19 -35 90 -166 158 -293 68 -126 229 -425 357 -664
l234 -434 -39 -41 c-67 -71 -1376 -1491 -1391 -1509 -13 -16 11 -17 405 -17
l419 0 454 511 c249 281 457 507 461 502 5 -4 125 -233 268 -508 l260 -500
380 -3 380 -2 -415 761 -415 761 39 42 c35 36 1264 1375 1316 1434 l20 22
-399 -1 -399 0 -410 -455 c-225 -250 -422 -466 -436 -480 l-27 -25 -19 33
c-11 18 -125 234 -253 481 l-234 447 -374 0 -374 0 34 -62z m726 -60 c22 -40
128 -245 237 -455 l197 -383 -19 -23 c-49 -63 -141 -157 -145 -147 -2 6 -55
-45 -119 -113 -96 -103 -118 -121 -126 -108 -5 9 -70 126 -143 261 -73 135
-174 322 -225 415 -51 94 -145 269 -210 390 -65 121 -120 223 -122 228 -2 4
140 7 316 7 l319 0 40 -72z m2011 25 c-46 -49 -387 -416 -430 -465 -34 -37
-928 -550 -948 -543 -9 3 -31 33 -47 67 l-31 63 141 156 c78 85 265 293 416
462 l275 306 335 0 334 1 -45 -47z m-1472 -972 l42 -79 -24 -16 c-19 -12 -51
-16 -136 -16 l-111 0 87 95 c48 52 90 95 94 95 3 0 25 -36 48 -79z m-108 -165
c-9 -9 -178 -106 -184 -106 -6 0 4 89 12 103 2 4 43 7 90 7 48 0 84 -2 82 -4z
m-246 -104 c-5 -40 -9 -45 -75 -83 -38 -23 -71 -39 -73 -37 -2 1 31 40 72 86
42 45 77 81 79 80 1 -2 0 -23 -3 -46z"/>
</g>
</svg>
